<mxfile host="app.diagrams.net" agent="Mozilla/5.0 (Windows NT 10.0; Win64; x64) AppleWebKit/537.36 (KHTML, like Gecko) Chrome/139.0.0.0 Safari/537.36" version="28.0.7">
  <diagram name="Страница — 1" id="nMNmyqqY_5cYkKAZrQVE">
    <mxGraphModel dx="2067" dy="1253" grid="1" gridSize="10" guides="1" tooltips="1" connect="1" arrows="1" fold="1" page="1" pageScale="1" pageWidth="827" pageHeight="1169" math="0" shadow="0">
      <root>
        <mxCell id="0" />
        <mxCell id="1" parent="0" />
        <mxCell id="9iA71xw4mxp883TANVkO-1" value="Карта текущего IT-ландшафта" style="shape=table;startSize=30;container=1;collapsible=0;childLayout=tableLayout;strokeColor=default;fontSize=16;" vertex="1" parent="1">
          <mxGeometry x="210" y="230" width="1640" height="1050" as="geometry" />
        </mxCell>
        <mxCell id="9iA71xw4mxp883TANVkO-2" value="" style="shape=tableRow;horizontal=0;startSize=0;swimlaneHead=0;swimlaneBody=0;strokeColor=inherit;top=0;left=0;bottom=0;right=0;collapsible=0;dropTarget=0;fillColor=none;points=[[0,0.5],[1,0.5]];portConstraint=eastwest;fontSize=16;" vertex="1" parent="9iA71xw4mxp883TANVkO-1">
          <mxGeometry y="30" width="1640" height="140" as="geometry" />
        </mxCell>
        <mxCell id="9iA71xw4mxp883TANVkO-3" value="" style="shape=partialRectangle;html=1;whiteSpace=wrap;connectable=0;overflow=hidden;fillColor=#f5f5f5;top=0;left=0;bottom=0;right=0;pointerEvents=1;fontSize=16;fontColor=#333333;strokeColor=#666666;" vertex="1" parent="9iA71xw4mxp883TANVkO-2">
          <mxGeometry width="233" height="140" as="geometry">
            <mxRectangle width="233" height="140" as="alternateBounds" />
          </mxGeometry>
        </mxCell>
        <mxCell id="9iA71xw4mxp883TANVkO-4" value="Продажи в сети отделений" style="shape=partialRectangle;html=1;whiteSpace=wrap;connectable=0;strokeColor=inherit;overflow=hidden;fillColor=none;top=0;left=0;bottom=0;right=0;pointerEvents=1;fontSize=16;" vertex="1" parent="9iA71xw4mxp883TANVkO-2">
          <mxGeometry x="233" width="234" height="140" as="geometry">
            <mxRectangle width="234" height="140" as="alternateBounds" />
          </mxGeometry>
        </mxCell>
        <mxCell id="9iA71xw4mxp883TANVkO-5" value="Продажи через колл-центр" style="shape=partialRectangle;html=1;whiteSpace=wrap;connectable=0;strokeColor=inherit;overflow=hidden;fillColor=none;top=0;left=0;bottom=0;right=0;pointerEvents=1;fontSize=16;" vertex="1" parent="9iA71xw4mxp883TANVkO-2">
          <mxGeometry x="467" width="240" height="140" as="geometry">
            <mxRectangle width="240" height="140" as="alternateBounds" />
          </mxGeometry>
        </mxCell>
        <mxCell id="9iA71xw4mxp883TANVkO-133" value="Digital-оповещения клиентов" style="shape=partialRectangle;html=1;whiteSpace=wrap;connectable=0;strokeColor=inherit;overflow=hidden;fillColor=none;top=0;left=0;bottom=0;right=0;pointerEvents=1;fontSize=16;" vertex="1" parent="9iA71xw4mxp883TANVkO-2">
          <mxGeometry x="707" width="231" height="140" as="geometry">
            <mxRectangle width="231" height="140" as="alternateBounds" />
          </mxGeometry>
        </mxCell>
        <mxCell id="9iA71xw4mxp883TANVkO-126" value="Обслуживание депозитных процессов" style="shape=partialRectangle;html=1;whiteSpace=wrap;connectable=0;strokeColor=inherit;overflow=hidden;fillColor=none;top=0;left=0;bottom=0;right=0;pointerEvents=1;fontSize=16;" vertex="1" parent="9iA71xw4mxp883TANVkO-2">
          <mxGeometry x="938" width="233" height="140" as="geometry">
            <mxRectangle width="233" height="140" as="alternateBounds" />
          </mxGeometry>
        </mxCell>
        <mxCell id="9iA71xw4mxp883TANVkO-119" value="Обслуживание кредитных процессов" style="shape=partialRectangle;html=1;whiteSpace=wrap;connectable=0;strokeColor=inherit;overflow=hidden;fillColor=none;top=0;left=0;bottom=0;right=0;pointerEvents=1;fontSize=16;" vertex="1" parent="9iA71xw4mxp883TANVkO-2">
          <mxGeometry x="1171" width="236" height="140" as="geometry">
            <mxRectangle width="236" height="140" as="alternateBounds" />
          </mxGeometry>
        </mxCell>
        <mxCell id="9iA71xw4mxp883TANVkO-112" value="Управление договорами" style="shape=partialRectangle;html=1;whiteSpace=wrap;connectable=0;strokeColor=inherit;overflow=hidden;fillColor=none;top=0;left=0;bottom=0;right=0;pointerEvents=1;fontSize=16;" vertex="1" parent="9iA71xw4mxp883TANVkO-2">
          <mxGeometry x="1407" width="233" height="140" as="geometry">
            <mxRectangle width="233" height="140" as="alternateBounds" />
          </mxGeometry>
        </mxCell>
        <mxCell id="9iA71xw4mxp883TANVkO-6" value="" style="shape=tableRow;horizontal=0;startSize=0;swimlaneHead=0;swimlaneBody=0;strokeColor=inherit;top=0;left=0;bottom=0;right=0;collapsible=0;dropTarget=0;fillColor=none;points=[[0,0.5],[1,0.5]];portConstraint=eastwest;fontSize=16;" vertex="1" parent="9iA71xw4mxp883TANVkO-1">
          <mxGeometry y="170" width="1640" height="161" as="geometry" />
        </mxCell>
        <mxCell id="9iA71xw4mxp883TANVkO-7" value="Колл-центр" style="shape=partialRectangle;html=1;whiteSpace=wrap;connectable=0;strokeColor=inherit;overflow=hidden;fillColor=none;top=0;left=0;bottom=0;right=0;pointerEvents=1;fontSize=16;" vertex="1" parent="9iA71xw4mxp883TANVkO-6">
          <mxGeometry width="233" height="161" as="geometry">
            <mxRectangle width="233" height="161" as="alternateBounds" />
          </mxGeometry>
        </mxCell>
        <mxCell id="9iA71xw4mxp883TANVkO-8" value="" style="shape=partialRectangle;html=1;whiteSpace=wrap;connectable=0;strokeColor=inherit;overflow=hidden;fillColor=none;top=0;left=0;bottom=0;right=0;pointerEvents=1;fontSize=16;" vertex="1" parent="9iA71xw4mxp883TANVkO-6">
          <mxGeometry x="233" width="234" height="161" as="geometry">
            <mxRectangle width="234" height="161" as="alternateBounds" />
          </mxGeometry>
        </mxCell>
        <mxCell id="9iA71xw4mxp883TANVkO-9" value="" style="shape=partialRectangle;html=1;whiteSpace=wrap;connectable=0;strokeColor=inherit;overflow=hidden;fillColor=none;top=0;left=0;bottom=0;right=0;pointerEvents=1;fontSize=16;" vertex="1" parent="9iA71xw4mxp883TANVkO-6">
          <mxGeometry x="467" width="240" height="161" as="geometry">
            <mxRectangle width="240" height="161" as="alternateBounds" />
          </mxGeometry>
        </mxCell>
        <mxCell id="9iA71xw4mxp883TANVkO-134" style="shape=partialRectangle;html=1;whiteSpace=wrap;connectable=0;strokeColor=inherit;overflow=hidden;fillColor=none;top=0;left=0;bottom=0;right=0;pointerEvents=1;fontSize=16;" vertex="1" parent="9iA71xw4mxp883TANVkO-6">
          <mxGeometry x="707" width="231" height="161" as="geometry">
            <mxRectangle width="231" height="161" as="alternateBounds" />
          </mxGeometry>
        </mxCell>
        <mxCell id="9iA71xw4mxp883TANVkO-127" style="shape=partialRectangle;html=1;whiteSpace=wrap;connectable=0;strokeColor=inherit;overflow=hidden;fillColor=none;top=0;left=0;bottom=0;right=0;pointerEvents=1;fontSize=16;" vertex="1" parent="9iA71xw4mxp883TANVkO-6">
          <mxGeometry x="938" width="233" height="161" as="geometry">
            <mxRectangle width="233" height="161" as="alternateBounds" />
          </mxGeometry>
        </mxCell>
        <mxCell id="9iA71xw4mxp883TANVkO-120" style="shape=partialRectangle;html=1;whiteSpace=wrap;connectable=0;strokeColor=inherit;overflow=hidden;fillColor=none;top=0;left=0;bottom=0;right=0;pointerEvents=1;fontSize=16;" vertex="1" parent="9iA71xw4mxp883TANVkO-6">
          <mxGeometry x="1171" width="236" height="161" as="geometry">
            <mxRectangle width="236" height="161" as="alternateBounds" />
          </mxGeometry>
        </mxCell>
        <mxCell id="9iA71xw4mxp883TANVkO-113" style="shape=partialRectangle;html=1;whiteSpace=wrap;connectable=0;strokeColor=inherit;overflow=hidden;fillColor=none;top=0;left=0;bottom=0;right=0;pointerEvents=1;fontSize=16;" vertex="1" parent="9iA71xw4mxp883TANVkO-6">
          <mxGeometry x="1407" width="233" height="161" as="geometry">
            <mxRectangle width="233" height="161" as="alternateBounds" />
          </mxGeometry>
        </mxCell>
        <mxCell id="9iA71xw4mxp883TANVkO-78" value="" style="shape=tableRow;horizontal=0;startSize=0;swimlaneHead=0;swimlaneBody=0;strokeColor=inherit;top=0;left=0;bottom=0;right=0;collapsible=0;dropTarget=0;fillColor=none;points=[[0,0.5],[1,0.5]];portConstraint=eastwest;fontSize=16;" vertex="1" parent="9iA71xw4mxp883TANVkO-1">
          <mxGeometry y="331" width="1640" height="139" as="geometry" />
        </mxCell>
        <mxCell id="9iA71xw4mxp883TANVkO-79" value="IT-отдел" style="shape=partialRectangle;html=1;whiteSpace=wrap;connectable=0;strokeColor=inherit;overflow=hidden;fillColor=none;top=0;left=0;bottom=0;right=0;pointerEvents=1;fontSize=16;" vertex="1" parent="9iA71xw4mxp883TANVkO-78">
          <mxGeometry width="233" height="139" as="geometry">
            <mxRectangle width="233" height="139" as="alternateBounds" />
          </mxGeometry>
        </mxCell>
        <mxCell id="9iA71xw4mxp883TANVkO-80" value="&lt;span style=&quot;color: rgba(0, 0, 0, 0); font-family: monospace; font-size: 0px; text-align: start; text-wrap-mode: nowrap;&quot;&gt;%3CmxGraphModel%3E%3Croot%3E%3CmxCell%20id%3D%220%22%2F%3E%3CmxCell%20id%3D%221%22%20parent%3D%220%22%2F%3E%3CmxCell%20id%3D%222%22%20value%3D%22%D0%A1%D0%B0%D0%B9%D1%82%22%20style%3D%22rounded%3D1%3BwhiteSpace%3Dwrap%3Bhtml%3D1%3BfillColor%3D%23dae8fc%3BstrokeColor%3D%236c8ebf%3B%22%20vertex%3D%221%22%20parent%3D%221%22%3E%3CmxGeometry%20x%3D%22250%22%20y%3D%22449%22%20width%3D%22120%22%20height%3D%2251%22%20as%3D%22geometry%22%2F%3E%3C%2FmxCell%3E%3C%2Froot%3E%3C%2FmxGraphModel%3E&lt;/span&gt;" style="shape=partialRectangle;html=1;whiteSpace=wrap;connectable=0;strokeColor=inherit;overflow=hidden;fillColor=none;top=0;left=0;bottom=0;right=0;pointerEvents=1;fontSize=16;" vertex="1" parent="9iA71xw4mxp883TANVkO-78">
          <mxGeometry x="233" width="234" height="139" as="geometry">
            <mxRectangle width="234" height="139" as="alternateBounds" />
          </mxGeometry>
        </mxCell>
        <mxCell id="9iA71xw4mxp883TANVkO-81" value="" style="shape=partialRectangle;html=1;whiteSpace=wrap;connectable=0;strokeColor=inherit;overflow=hidden;fillColor=none;top=0;left=0;bottom=0;right=0;pointerEvents=1;fontSize=16;" vertex="1" parent="9iA71xw4mxp883TANVkO-78">
          <mxGeometry x="467" width="240" height="139" as="geometry">
            <mxRectangle width="240" height="139" as="alternateBounds" />
          </mxGeometry>
        </mxCell>
        <mxCell id="9iA71xw4mxp883TANVkO-135" style="shape=partialRectangle;html=1;whiteSpace=wrap;connectable=0;strokeColor=inherit;overflow=hidden;fillColor=none;top=0;left=0;bottom=0;right=0;pointerEvents=1;fontSize=16;" vertex="1" parent="9iA71xw4mxp883TANVkO-78">
          <mxGeometry x="707" width="231" height="139" as="geometry">
            <mxRectangle width="231" height="139" as="alternateBounds" />
          </mxGeometry>
        </mxCell>
        <mxCell id="9iA71xw4mxp883TANVkO-128" style="shape=partialRectangle;html=1;whiteSpace=wrap;connectable=0;strokeColor=inherit;overflow=hidden;fillColor=none;top=0;left=0;bottom=0;right=0;pointerEvents=1;fontSize=16;" vertex="1" parent="9iA71xw4mxp883TANVkO-78">
          <mxGeometry x="938" width="233" height="139" as="geometry">
            <mxRectangle width="233" height="139" as="alternateBounds" />
          </mxGeometry>
        </mxCell>
        <mxCell id="9iA71xw4mxp883TANVkO-121" style="shape=partialRectangle;html=1;whiteSpace=wrap;connectable=0;strokeColor=inherit;overflow=hidden;fillColor=none;top=0;left=0;bottom=0;right=0;pointerEvents=1;fontSize=16;" vertex="1" parent="9iA71xw4mxp883TANVkO-78">
          <mxGeometry x="1171" width="236" height="139" as="geometry">
            <mxRectangle width="236" height="139" as="alternateBounds" />
          </mxGeometry>
        </mxCell>
        <mxCell id="9iA71xw4mxp883TANVkO-114" style="shape=partialRectangle;html=1;whiteSpace=wrap;connectable=0;strokeColor=inherit;overflow=hidden;fillColor=none;top=0;left=0;bottom=0;right=0;pointerEvents=1;fontSize=16;" vertex="1" parent="9iA71xw4mxp883TANVkO-78">
          <mxGeometry x="1407" width="233" height="139" as="geometry">
            <mxRectangle width="233" height="139" as="alternateBounds" />
          </mxGeometry>
        </mxCell>
        <mxCell id="9iA71xw4mxp883TANVkO-108" value="" style="shape=tableRow;horizontal=0;startSize=0;swimlaneHead=0;swimlaneBody=0;strokeColor=inherit;top=0;left=0;bottom=0;right=0;collapsible=0;dropTarget=0;fillColor=none;points=[[0,0.5],[1,0.5]];portConstraint=eastwest;fontSize=16;" vertex="1" parent="9iA71xw4mxp883TANVkO-1">
          <mxGeometry y="470" width="1640" height="142" as="geometry" />
        </mxCell>
        <mxCell id="9iA71xw4mxp883TANVkO-109" value="Управление обслуживанием в сети отделений" style="shape=partialRectangle;html=1;whiteSpace=wrap;connectable=0;strokeColor=inherit;overflow=hidden;fillColor=none;top=0;left=0;bottom=0;right=0;pointerEvents=1;fontSize=16;" vertex="1" parent="9iA71xw4mxp883TANVkO-108">
          <mxGeometry width="233" height="142" as="geometry">
            <mxRectangle width="233" height="142" as="alternateBounds" />
          </mxGeometry>
        </mxCell>
        <mxCell id="9iA71xw4mxp883TANVkO-110" value="" style="shape=partialRectangle;html=1;whiteSpace=wrap;connectable=0;strokeColor=inherit;overflow=hidden;fillColor=none;top=0;left=0;bottom=0;right=0;pointerEvents=1;fontSize=16;" vertex="1" parent="9iA71xw4mxp883TANVkO-108">
          <mxGeometry x="233" width="234" height="142" as="geometry">
            <mxRectangle width="234" height="142" as="alternateBounds" />
          </mxGeometry>
        </mxCell>
        <mxCell id="9iA71xw4mxp883TANVkO-111" value="" style="shape=partialRectangle;html=1;whiteSpace=wrap;connectable=0;strokeColor=inherit;overflow=hidden;fillColor=none;top=0;left=0;bottom=0;right=0;pointerEvents=1;fontSize=16;" vertex="1" parent="9iA71xw4mxp883TANVkO-108">
          <mxGeometry x="467" width="240" height="142" as="geometry">
            <mxRectangle width="240" height="142" as="alternateBounds" />
          </mxGeometry>
        </mxCell>
        <mxCell id="9iA71xw4mxp883TANVkO-136" style="shape=partialRectangle;html=1;whiteSpace=wrap;connectable=0;strokeColor=inherit;overflow=hidden;fillColor=none;top=0;left=0;bottom=0;right=0;pointerEvents=1;fontSize=16;" vertex="1" parent="9iA71xw4mxp883TANVkO-108">
          <mxGeometry x="707" width="231" height="142" as="geometry">
            <mxRectangle width="231" height="142" as="alternateBounds" />
          </mxGeometry>
        </mxCell>
        <mxCell id="9iA71xw4mxp883TANVkO-129" style="shape=partialRectangle;html=1;whiteSpace=wrap;connectable=0;strokeColor=inherit;overflow=hidden;fillColor=none;top=0;left=0;bottom=0;right=0;pointerEvents=1;fontSize=16;" vertex="1" parent="9iA71xw4mxp883TANVkO-108">
          <mxGeometry x="938" width="233" height="142" as="geometry">
            <mxRectangle width="233" height="142" as="alternateBounds" />
          </mxGeometry>
        </mxCell>
        <mxCell id="9iA71xw4mxp883TANVkO-122" style="shape=partialRectangle;html=1;whiteSpace=wrap;connectable=0;strokeColor=inherit;overflow=hidden;fillColor=none;top=0;left=0;bottom=0;right=0;pointerEvents=1;fontSize=16;" vertex="1" parent="9iA71xw4mxp883TANVkO-108">
          <mxGeometry x="1171" width="236" height="142" as="geometry">
            <mxRectangle width="236" height="142" as="alternateBounds" />
          </mxGeometry>
        </mxCell>
        <mxCell id="9iA71xw4mxp883TANVkO-115" style="shape=partialRectangle;html=1;whiteSpace=wrap;connectable=0;strokeColor=inherit;overflow=hidden;fillColor=none;top=0;left=0;bottom=0;right=0;pointerEvents=1;fontSize=16;" vertex="1" parent="9iA71xw4mxp883TANVkO-108">
          <mxGeometry x="1407" width="233" height="142" as="geometry">
            <mxRectangle width="233" height="142" as="alternateBounds" />
          </mxGeometry>
        </mxCell>
        <mxCell id="9iA71xw4mxp883TANVkO-70" value="" style="shape=tableRow;horizontal=0;startSize=0;swimlaneHead=0;swimlaneBody=0;strokeColor=inherit;top=0;left=0;bottom=0;right=0;collapsible=0;dropTarget=0;fillColor=none;points=[[0,0.5],[1,0.5]];portConstraint=eastwest;fontSize=16;" vertex="1" parent="9iA71xw4mxp883TANVkO-1">
          <mxGeometry y="612" width="1640" height="139" as="geometry" />
        </mxCell>
        <mxCell id="9iA71xw4mxp883TANVkO-71" value="Управление обслуживанием депозитных&amp;nbsp;&lt;div&gt;продуктов&lt;/div&gt;" style="shape=partialRectangle;html=1;whiteSpace=wrap;connectable=0;strokeColor=inherit;overflow=hidden;fillColor=none;top=0;left=0;bottom=0;right=0;pointerEvents=1;fontSize=16;" vertex="1" parent="9iA71xw4mxp883TANVkO-70">
          <mxGeometry width="233" height="139" as="geometry">
            <mxRectangle width="233" height="139" as="alternateBounds" />
          </mxGeometry>
        </mxCell>
        <mxCell id="9iA71xw4mxp883TANVkO-72" value="" style="shape=partialRectangle;html=1;whiteSpace=wrap;connectable=0;strokeColor=inherit;overflow=hidden;fillColor=none;top=0;left=0;bottom=0;right=0;pointerEvents=1;fontSize=16;" vertex="1" parent="9iA71xw4mxp883TANVkO-70">
          <mxGeometry x="233" width="234" height="139" as="geometry">
            <mxRectangle width="234" height="139" as="alternateBounds" />
          </mxGeometry>
        </mxCell>
        <mxCell id="9iA71xw4mxp883TANVkO-73" value="" style="shape=partialRectangle;html=1;whiteSpace=wrap;connectable=0;strokeColor=inherit;overflow=hidden;fillColor=none;top=0;left=0;bottom=0;right=0;pointerEvents=1;fontSize=16;" vertex="1" parent="9iA71xw4mxp883TANVkO-70">
          <mxGeometry x="467" width="240" height="139" as="geometry">
            <mxRectangle width="240" height="139" as="alternateBounds" />
          </mxGeometry>
        </mxCell>
        <mxCell id="9iA71xw4mxp883TANVkO-137" style="shape=partialRectangle;html=1;whiteSpace=wrap;connectable=0;strokeColor=inherit;overflow=hidden;fillColor=none;top=0;left=0;bottom=0;right=0;pointerEvents=1;fontSize=16;" vertex="1" parent="9iA71xw4mxp883TANVkO-70">
          <mxGeometry x="707" width="231" height="139" as="geometry">
            <mxRectangle width="231" height="139" as="alternateBounds" />
          </mxGeometry>
        </mxCell>
        <mxCell id="9iA71xw4mxp883TANVkO-130" style="shape=partialRectangle;html=1;whiteSpace=wrap;connectable=0;strokeColor=inherit;overflow=hidden;fillColor=none;top=0;left=0;bottom=0;right=0;pointerEvents=1;fontSize=16;" vertex="1" parent="9iA71xw4mxp883TANVkO-70">
          <mxGeometry x="938" width="233" height="139" as="geometry">
            <mxRectangle width="233" height="139" as="alternateBounds" />
          </mxGeometry>
        </mxCell>
        <mxCell id="9iA71xw4mxp883TANVkO-123" style="shape=partialRectangle;html=1;whiteSpace=wrap;connectable=0;strokeColor=inherit;overflow=hidden;fillColor=none;top=0;left=0;bottom=0;right=0;pointerEvents=1;fontSize=16;" vertex="1" parent="9iA71xw4mxp883TANVkO-70">
          <mxGeometry x="1171" width="236" height="139" as="geometry">
            <mxRectangle width="236" height="139" as="alternateBounds" />
          </mxGeometry>
        </mxCell>
        <mxCell id="9iA71xw4mxp883TANVkO-116" style="shape=partialRectangle;html=1;whiteSpace=wrap;connectable=0;strokeColor=inherit;overflow=hidden;fillColor=none;top=0;left=0;bottom=0;right=0;pointerEvents=1;fontSize=16;" vertex="1" parent="9iA71xw4mxp883TANVkO-70">
          <mxGeometry x="1407" width="233" height="139" as="geometry">
            <mxRectangle width="233" height="139" as="alternateBounds" />
          </mxGeometry>
        </mxCell>
        <mxCell id="9iA71xw4mxp883TANVkO-10" value="" style="shape=tableRow;horizontal=0;startSize=0;swimlaneHead=0;swimlaneBody=0;strokeColor=inherit;top=0;left=0;bottom=0;right=0;collapsible=0;dropTarget=0;fillColor=none;points=[[0,0.5],[1,0.5]];portConstraint=eastwest;fontSize=16;" vertex="1" parent="9iA71xw4mxp883TANVkO-1">
          <mxGeometry y="751" width="1640" height="139" as="geometry" />
        </mxCell>
        <mxCell id="9iA71xw4mxp883TANVkO-11" value="Управление обслуживанием кредитных&amp;nbsp;&lt;div&gt;продуктов&lt;/div&gt;" style="shape=partialRectangle;html=1;whiteSpace=wrap;connectable=0;strokeColor=inherit;overflow=hidden;fillColor=none;top=0;left=0;bottom=0;right=0;pointerEvents=1;fontSize=16;" vertex="1" parent="9iA71xw4mxp883TANVkO-10">
          <mxGeometry width="233" height="139" as="geometry">
            <mxRectangle width="233" height="139" as="alternateBounds" />
          </mxGeometry>
        </mxCell>
        <mxCell id="9iA71xw4mxp883TANVkO-12" value="" style="shape=partialRectangle;html=1;whiteSpace=wrap;connectable=0;strokeColor=inherit;overflow=hidden;fillColor=none;top=0;left=0;bottom=0;right=0;pointerEvents=1;fontSize=16;" vertex="1" parent="9iA71xw4mxp883TANVkO-10">
          <mxGeometry x="233" width="234" height="139" as="geometry">
            <mxRectangle width="234" height="139" as="alternateBounds" />
          </mxGeometry>
        </mxCell>
        <mxCell id="9iA71xw4mxp883TANVkO-13" value="" style="shape=partialRectangle;html=1;whiteSpace=wrap;connectable=0;strokeColor=inherit;overflow=hidden;fillColor=none;top=0;left=0;bottom=0;right=0;pointerEvents=1;fontSize=16;" vertex="1" parent="9iA71xw4mxp883TANVkO-10">
          <mxGeometry x="467" width="240" height="139" as="geometry">
            <mxRectangle width="240" height="139" as="alternateBounds" />
          </mxGeometry>
        </mxCell>
        <mxCell id="9iA71xw4mxp883TANVkO-138" style="shape=partialRectangle;html=1;whiteSpace=wrap;connectable=0;strokeColor=inherit;overflow=hidden;fillColor=none;top=0;left=0;bottom=0;right=0;pointerEvents=1;fontSize=16;" vertex="1" parent="9iA71xw4mxp883TANVkO-10">
          <mxGeometry x="707" width="231" height="139" as="geometry">
            <mxRectangle width="231" height="139" as="alternateBounds" />
          </mxGeometry>
        </mxCell>
        <mxCell id="9iA71xw4mxp883TANVkO-131" style="shape=partialRectangle;html=1;whiteSpace=wrap;connectable=0;strokeColor=inherit;overflow=hidden;fillColor=none;top=0;left=0;bottom=0;right=0;pointerEvents=1;fontSize=16;" vertex="1" parent="9iA71xw4mxp883TANVkO-10">
          <mxGeometry x="938" width="233" height="139" as="geometry">
            <mxRectangle width="233" height="139" as="alternateBounds" />
          </mxGeometry>
        </mxCell>
        <mxCell id="9iA71xw4mxp883TANVkO-124" style="shape=partialRectangle;html=1;whiteSpace=wrap;connectable=0;strokeColor=inherit;overflow=hidden;fillColor=none;top=0;left=0;bottom=0;right=0;pointerEvents=1;fontSize=16;" vertex="1" parent="9iA71xw4mxp883TANVkO-10">
          <mxGeometry x="1171" width="236" height="139" as="geometry">
            <mxRectangle width="236" height="139" as="alternateBounds" />
          </mxGeometry>
        </mxCell>
        <mxCell id="9iA71xw4mxp883TANVkO-117" style="shape=partialRectangle;html=1;whiteSpace=wrap;connectable=0;strokeColor=inherit;overflow=hidden;fillColor=none;top=0;left=0;bottom=0;right=0;pointerEvents=1;fontSize=16;" vertex="1" parent="9iA71xw4mxp883TANVkO-10">
          <mxGeometry x="1407" width="233" height="139" as="geometry">
            <mxRectangle width="233" height="139" as="alternateBounds" />
          </mxGeometry>
        </mxCell>
        <mxCell id="9iA71xw4mxp883TANVkO-74" value="" style="shape=tableRow;horizontal=0;startSize=0;swimlaneHead=0;swimlaneBody=0;strokeColor=inherit;top=0;left=0;bottom=0;right=0;collapsible=0;dropTarget=0;fillColor=none;points=[[0,0.5],[1,0.5]];portConstraint=eastwest;fontSize=16;" vertex="1" parent="9iA71xw4mxp883TANVkO-1">
          <mxGeometry y="890" width="1640" height="160" as="geometry" />
        </mxCell>
        <mxCell id="9iA71xw4mxp883TANVkO-75" value="Команда цифровой траннсформации розничного бизнеса" style="shape=partialRectangle;html=1;whiteSpace=wrap;connectable=0;strokeColor=inherit;overflow=hidden;fillColor=none;top=0;left=0;bottom=0;right=0;pointerEvents=1;fontSize=16;" vertex="1" parent="9iA71xw4mxp883TANVkO-74">
          <mxGeometry width="233" height="160" as="geometry">
            <mxRectangle width="233" height="160" as="alternateBounds" />
          </mxGeometry>
        </mxCell>
        <mxCell id="9iA71xw4mxp883TANVkO-76" value="" style="shape=partialRectangle;html=1;whiteSpace=wrap;connectable=0;strokeColor=inherit;overflow=hidden;fillColor=none;top=0;left=0;bottom=0;right=0;pointerEvents=1;fontSize=16;" vertex="1" parent="9iA71xw4mxp883TANVkO-74">
          <mxGeometry x="233" width="234" height="160" as="geometry">
            <mxRectangle width="234" height="160" as="alternateBounds" />
          </mxGeometry>
        </mxCell>
        <mxCell id="9iA71xw4mxp883TANVkO-77" value="" style="shape=partialRectangle;html=1;whiteSpace=wrap;connectable=0;strokeColor=inherit;overflow=hidden;fillColor=none;top=0;left=0;bottom=0;right=0;pointerEvents=1;fontSize=16;" vertex="1" parent="9iA71xw4mxp883TANVkO-74">
          <mxGeometry x="467" width="240" height="160" as="geometry">
            <mxRectangle width="240" height="160" as="alternateBounds" />
          </mxGeometry>
        </mxCell>
        <mxCell id="9iA71xw4mxp883TANVkO-139" style="shape=partialRectangle;html=1;whiteSpace=wrap;connectable=0;strokeColor=inherit;overflow=hidden;fillColor=none;top=0;left=0;bottom=0;right=0;pointerEvents=1;fontSize=16;" vertex="1" parent="9iA71xw4mxp883TANVkO-74">
          <mxGeometry x="707" width="231" height="160" as="geometry">
            <mxRectangle width="231" height="160" as="alternateBounds" />
          </mxGeometry>
        </mxCell>
        <mxCell id="9iA71xw4mxp883TANVkO-132" style="shape=partialRectangle;html=1;whiteSpace=wrap;connectable=0;strokeColor=inherit;overflow=hidden;fillColor=none;top=0;left=0;bottom=0;right=0;pointerEvents=1;fontSize=16;" vertex="1" parent="9iA71xw4mxp883TANVkO-74">
          <mxGeometry x="938" width="233" height="160" as="geometry">
            <mxRectangle width="233" height="160" as="alternateBounds" />
          </mxGeometry>
        </mxCell>
        <mxCell id="9iA71xw4mxp883TANVkO-125" style="shape=partialRectangle;html=1;whiteSpace=wrap;connectable=0;strokeColor=inherit;overflow=hidden;fillColor=none;top=0;left=0;bottom=0;right=0;pointerEvents=1;fontSize=16;" vertex="1" parent="9iA71xw4mxp883TANVkO-74">
          <mxGeometry x="1171" width="236" height="160" as="geometry">
            <mxRectangle width="236" height="160" as="alternateBounds" />
          </mxGeometry>
        </mxCell>
        <mxCell id="9iA71xw4mxp883TANVkO-118" style="shape=partialRectangle;html=1;whiteSpace=wrap;connectable=0;strokeColor=inherit;overflow=hidden;fillColor=none;top=0;left=0;bottom=0;right=0;pointerEvents=1;fontSize=16;" vertex="1" parent="9iA71xw4mxp883TANVkO-74">
          <mxGeometry x="1407" width="233" height="160" as="geometry">
            <mxRectangle width="233" height="160" as="alternateBounds" />
          </mxGeometry>
        </mxCell>
        <mxCell id="9iA71xw4mxp883TANVkO-142" value="&lt;font style=&quot;font-size: 13px;&quot;&gt;Система кол-центра&lt;/font&gt;" style="rounded=0;whiteSpace=wrap;html=1;fillColor=#dae8fc;strokeColor=#6c8ebf;" vertex="1" parent="1">
          <mxGeometry x="690" y="430" width="100" height="106" as="geometry" />
        </mxCell>
        <mxCell id="9iA71xw4mxp883TANVkO-143" value="&lt;font style=&quot;font-size: 13px;&quot;&gt;Система партнерского кол-центра&lt;/font&gt;" style="rounded=0;whiteSpace=wrap;html=1;fillColor=#dae8fc;strokeColor=#6c8ebf;" vertex="1" parent="1">
          <mxGeometry x="806" y="430" width="100" height="106" as="geometry" />
        </mxCell>
        <mxCell id="9iA71xw4mxp883TANVkO-144" value="&lt;font style=&quot;font-size: 13px;&quot;&gt;СМС-шлюз телеком-оператора&lt;/font&gt;" style="rounded=0;whiteSpace=wrap;html=1;fillColor=#dae8fc;strokeColor=#6c8ebf;" vertex="1" parent="1">
          <mxGeometry x="930" y="570" width="210" height="120" as="geometry" />
        </mxCell>
        <mxCell id="9iA71xw4mxp883TANVkO-146" value="&lt;span style=&quot;font-size: 13px;&quot;&gt;Сайт&lt;/span&gt;" style="rounded=0;whiteSpace=wrap;html=1;fillColor=#dae8fc;strokeColor=#6c8ebf;" vertex="1" parent="1">
          <mxGeometry x="455" y="570" width="210" height="120" as="geometry" />
        </mxCell>
        <mxCell id="9iA71xw4mxp883TANVkO-147" value="&lt;font style=&quot;font-size: 13px;&quot;&gt;АБС&lt;/font&gt;" style="rounded=0;whiteSpace=wrap;html=1;fillColor=#dae8fc;strokeColor=#6c8ebf;shadow=1;" vertex="1" parent="1">
          <mxGeometry x="1160" y="850" width="680" height="420" as="geometry" />
        </mxCell>
        <mxCell id="9iA71xw4mxp883TANVkO-148" value="&lt;span style=&quot;font-size: 13px;&quot;&gt;Интернет-банк&lt;/span&gt;" style="rounded=0;whiteSpace=wrap;html=1;fillColor=#dae8fc;strokeColor=#6c8ebf;shadow=1;" vertex="1" parent="1">
          <mxGeometry x="1170" y="860" width="210" height="120" as="geometry" />
        </mxCell>
      </root>
    </mxGraphModel>
  </diagram>
</mxfile>
